<mxfile host="app.diagrams.net" modified="2024-01-16T09:56:14.810Z" agent="Mozilla/5.0 (Windows NT 10.0; Win64; x64) AppleWebKit/537.36 (KHTML, like Gecko) Chrome/120.0.0.0 Safari/537.36" etag="S_WkBBlF-6TQImKeD3QF" version="22.1.18" type="github">
  <diagram name="Page-1" id="ulccwZM6L2cwFl29SwA6">
    <mxGraphModel dx="875" dy="435" grid="1" gridSize="10" guides="1" tooltips="1" connect="1" arrows="1" fold="1" page="1" pageScale="1" pageWidth="850" pageHeight="1100" math="0" shadow="0">
      <root>
        <mxCell id="0" />
        <mxCell id="1" parent="0" />
        <mxCell id="RRlzNrVJQtshXSyo9dWB-3" value="&lt;b&gt;Nordic Semiconductor&lt;br&gt;nRF52840&lt;/b&gt;" style="swimlane;fontStyle=0;childLayout=stackLayout;horizontal=1;startSize=30;fillColor=#f8cecc;horizontalStack=0;resizeParent=1;resizeParentMax=0;resizeLast=0;collapsible=1;marginBottom=0;html=1;strokeColor=#b85450;" vertex="1" parent="1">
          <mxGeometry x="320" y="160" width="160" height="110" as="geometry">
            <mxRectangle x="370" y="360" width="60" height="30" as="alternateBounds" />
          </mxGeometry>
        </mxCell>
        <mxCell id="RRlzNrVJQtshXSyo9dWB-4" value="64 MHz ARM Cortex-M4F" style="text;strokeColor=none;fillColor=none;align=left;verticalAlign=top;spacingLeft=4;spacingRight=4;overflow=hidden;rotatable=0;points=[[0,0.5],[1,0.5]];portConstraint=eastwest;whiteSpace=wrap;html=1;" vertex="1" parent="RRlzNrVJQtshXSyo9dWB-3">
          <mxGeometry y="30" width="160" height="26" as="geometry" />
        </mxCell>
        <mxCell id="RRlzNrVJQtshXSyo9dWB-5" value="1 MB Flash, 256 KB RAM" style="text;strokeColor=none;fillColor=none;align=left;verticalAlign=top;spacingLeft=4;spacingRight=4;overflow=hidden;rotatable=0;points=[[0,0.5],[1,0.5]];portConstraint=eastwest;whiteSpace=wrap;html=1;" vertex="1" parent="RRlzNrVJQtshXSyo9dWB-3">
          <mxGeometry y="56" width="160" height="26" as="geometry" />
        </mxCell>
        <mxCell id="RRlzNrVJQtshXSyo9dWB-6" value="&lt;div style=&quot;border-color: var(--border-color);&quot;&gt;2.4 GHz Transceiver&lt;/div&gt;&lt;div style=&quot;border-color: var(--border-color);&quot;&gt;&lt;br style=&quot;border-color: var(--border-color); text-align: center;&quot;&gt;&lt;/div&gt;" style="text;strokeColor=none;fillColor=none;align=left;verticalAlign=top;spacingLeft=4;spacingRight=4;overflow=hidden;rotatable=0;points=[[0,0.5],[1,0.5]];portConstraint=eastwest;whiteSpace=wrap;html=1;" vertex="1" parent="RRlzNrVJQtshXSyo9dWB-3">
          <mxGeometry y="82" width="160" height="28" as="geometry" />
        </mxCell>
        <mxCell id="RRlzNrVJQtshXSyo9dWB-7" value="&lt;b&gt;Texas Instrument&lt;br&gt;ADS1293&lt;/b&gt;" style="swimlane;fontStyle=0;childLayout=stackLayout;horizontal=1;startSize=30;fillColor=#dae8fc;horizontalStack=0;resizeParent=1;resizeParentMax=0;resizeLast=0;collapsible=1;marginBottom=0;html=1;strokeColor=#6c8ebf;" vertex="1" parent="1">
          <mxGeometry x="520" y="80" width="120" height="90" as="geometry" />
        </mxCell>
        <mxCell id="RRlzNrVJQtshXSyo9dWB-8" value="Analog Front-End for Biopotential Measurements" style="text;strokeColor=none;fillColor=none;align=left;verticalAlign=top;spacingLeft=4;spacingRight=4;overflow=hidden;rotatable=0;points=[[0,0.5],[1,0.5]];portConstraint=eastwest;whiteSpace=wrap;html=1;" vertex="1" parent="RRlzNrVJQtshXSyo9dWB-7">
          <mxGeometry y="30" width="120" height="60" as="geometry" />
        </mxCell>
        <mxCell id="RRlzNrVJQtshXSyo9dWB-11" value="&lt;b&gt;Analog Devices&lt;br&gt;ADXL363&lt;/b&gt;" style="swimlane;fontStyle=0;childLayout=stackLayout;horizontal=1;startSize=30;fillColor=#dae8fc;horizontalStack=0;resizeParent=1;resizeParentMax=0;resizeLast=0;collapsible=1;marginBottom=0;html=1;strokeColor=#6c8ebf;" vertex="1" parent="1">
          <mxGeometry x="520" y="190" width="120" height="70" as="geometry" />
        </mxCell>
        <mxCell id="RRlzNrVJQtshXSyo9dWB-12" value="3-axis MEMS accelerometer" style="text;strokeColor=none;fillColor=none;align=left;verticalAlign=top;spacingLeft=4;spacingRight=4;overflow=hidden;rotatable=0;points=[[0,0.5],[1,0.5]];portConstraint=eastwest;whiteSpace=wrap;html=1;" vertex="1" parent="RRlzNrVJQtshXSyo9dWB-11">
          <mxGeometry y="30" width="120" height="40" as="geometry" />
        </mxCell>
        <mxCell id="RRlzNrVJQtshXSyo9dWB-13" value="&lt;b&gt;Battery&lt;/b&gt;" style="swimlane;fontStyle=0;childLayout=stackLayout;horizontal=1;startSize=20;fillColor=#ffe6cc;horizontalStack=0;resizeParent=1;resizeParentMax=0;resizeLast=0;collapsible=1;marginBottom=0;html=1;strokeColor=#d79b00;" vertex="1" parent="1">
          <mxGeometry x="330" y="67" width="140" height="72" as="geometry" />
        </mxCell>
        <mxCell id="RRlzNrVJQtshXSyo9dWB-14" value="Rechargeable" style="text;strokeColor=none;fillColor=none;align=left;verticalAlign=top;spacingLeft=4;spacingRight=4;overflow=hidden;rotatable=0;points=[[0,0.5],[1,0.5]];portConstraint=eastwest;whiteSpace=wrap;html=1;" vertex="1" parent="RRlzNrVJQtshXSyo9dWB-13">
          <mxGeometry y="20" width="140" height="26" as="geometry" />
        </mxCell>
        <mxCell id="RRlzNrVJQtshXSyo9dWB-15" value="High capacity" style="text;strokeColor=none;fillColor=none;align=left;verticalAlign=top;spacingLeft=4;spacingRight=4;overflow=hidden;rotatable=0;points=[[0,0.5],[1,0.5]];portConstraint=eastwest;whiteSpace=wrap;html=1;" vertex="1" parent="RRlzNrVJQtshXSyo9dWB-13">
          <mxGeometry y="46" width="140" height="26" as="geometry" />
        </mxCell>
        <mxCell id="RRlzNrVJQtshXSyo9dWB-17" value="&lt;b&gt;microSD Card&lt;/b&gt;" style="swimlane;fontStyle=0;childLayout=stackLayout;horizontal=1;startSize=20;fillColor=#d5e8d4;horizontalStack=0;resizeParent=1;resizeParentMax=0;resizeLast=0;collapsible=1;marginBottom=0;html=1;strokeColor=#82b366;" vertex="1" parent="1">
          <mxGeometry x="160" y="93" width="120" height="46" as="geometry" />
        </mxCell>
        <mxCell id="RRlzNrVJQtshXSyo9dWB-18" value="Up to 32GB" style="text;strokeColor=none;fillColor=none;align=left;verticalAlign=top;spacingLeft=4;spacingRight=4;overflow=hidden;rotatable=0;points=[[0,0.5],[1,0.5]];portConstraint=eastwest;whiteSpace=wrap;html=1;" vertex="1" parent="RRlzNrVJQtshXSyo9dWB-17">
          <mxGeometry y="20" width="120" height="26" as="geometry" />
        </mxCell>
        <mxCell id="RRlzNrVJQtshXSyo9dWB-23" value="&lt;b&gt;USB C connector&lt;/b&gt;" style="swimlane;fontStyle=0;childLayout=stackLayout;horizontal=1;startSize=20;fillColor=#d5e8d4;horizontalStack=0;resizeParent=1;resizeParentMax=0;resizeLast=0;collapsible=1;marginBottom=0;html=1;strokeColor=#82b366;" vertex="1" parent="1">
          <mxGeometry x="160" y="160" width="120" height="72" as="geometry" />
        </mxCell>
        <mxCell id="RRlzNrVJQtshXSyo9dWB-24" value="Charging" style="text;strokeColor=none;fillColor=none;align=left;verticalAlign=top;spacingLeft=4;spacingRight=4;overflow=hidden;rotatable=0;points=[[0,0.5],[1,0.5]];portConstraint=eastwest;whiteSpace=wrap;html=1;" vertex="1" parent="RRlzNrVJQtshXSyo9dWB-23">
          <mxGeometry y="20" width="120" height="26" as="geometry" />
        </mxCell>
        <mxCell id="RRlzNrVJQtshXSyo9dWB-25" value="Data transfer" style="text;strokeColor=none;fillColor=none;align=left;verticalAlign=top;spacingLeft=4;spacingRight=4;overflow=hidden;rotatable=0;points=[[0,0.5],[1,0.5]];portConstraint=eastwest;whiteSpace=wrap;html=1;" vertex="1" parent="RRlzNrVJQtshXSyo9dWB-23">
          <mxGeometry y="46" width="120" height="26" as="geometry" />
        </mxCell>
      </root>
    </mxGraphModel>
  </diagram>
</mxfile>
